# xmcd
#
# Track frame offsets:
#	150
#	21292
#	47930
#	69552
#	100030
#	125304
#	150257
#
# Disc length: 2446 seconds
#
# Revision: 1
# Processed by: cddbd v1.4PL0 Copyright (c) Steve Scherf et al.
# Submitted via: audiograbber 1.82.02
#
DISCID=50098c07
DTITLE=Rory Gallagher - The Marquee New York City 30/03/1991
DYEAR=1991
DGENRE=Blues
TTITLE0=Rory Gallagher - Kid Gloves
TTITLE1=Rory Gallagher - O.O.T.W.P.
TTITLE2=Rory Gallagher - Empire State Express
TTITLE3=Rory Gallager - Walkin Blues
TTITLE4=Rory Gallagher - Shadow Play
TTITLE5=Rory Gallagher - Messin With the Kid
TTITLE6=Rory Gallagher - Bullfrog Blues
EXTD=
EXTT0=
EXTT1=
EXTT2=
EXTT3=
EXTT4=
EXTT5=
EXTT6=
PLAYORDER=
